<svg xmlns="http://www.w3.org/2000/svg" version="1.1" xmlns:xlink="http://www.w3.org/1999/xlink" xmlns:svgjs="http://svgjs.dev/svgjs" width="1000" height="1000" viewBox="0 0 1000 1000"><rect width="1000" height="1000" fill="#ffffff"></rect><g transform="matrix(0.7,0,0,0.7,149.57576830673133,454.53519642440625)"><svg viewBox="0 0 396 52" data-background-color="#ffffff" preserveAspectRatio="xMidYMid meet" height="131" width="1000" xmlns="http://www.w3.org/2000/svg" xmlns:xlink="http://www.w3.org/1999/xlink"><defs></defs><g id="tight-bounds" transform="matrix(1,0,0,1,0.23999394617192138,-0.21843182502203717)"><svg viewBox="0 0 395.52 52.43686341268086" height="52.43686341268086" width="395.52"><g><svg viewBox="0 0 472.64804753925574 62.66227020400041" height="52.43686341268086" width="395.52"><g transform="matrix(1,0,0,1,77.12804753925577,16.217225260224904)"><svg viewBox="0 0 395.52 30.2278196835506" height="30.2278196835506" width="395.52"><g><svg viewBox="0 0 395.52 30.2278196835506" height="30.2278196835506" width="395.52"><g><svg viewBox="0 0 395.52 30.2278196835506" height="30.2278196835506" width="395.52"><g transform="matrix(1,0,0,1,0,0)"><svg width="395.52" viewBox="2.0999999046325684 -34.849998474121094 502.4499816894531 35.39999771118164" height="30.2278196835506" data-palette-color="#ff5858"><svg></svg><g class="undefined-text-0" data-fill-palette-color="primary" id="text-0"><path d="M14-29.95v0c-4.233 0-6.35 1.483-6.35 4.45v0c0 1.533 0.5 2.623 1.5 3.27 1 0.653 3.21 1.453 6.63 2.4 3.413 0.953 5.82 2.087 7.22 3.4 1.4 1.32 2.1 3.397 2.1 6.23v0c0 3.6-1.023 6.29-3.07 8.07-2.053 1.787-4.847 2.68-8.38 2.68v0c-2.833 0-5.967-0.333-9.4-1v0l-1.8-0.35 0.55-4.45c4.5 0.6 7.933 0.9 10.3 0.9v0c4.133 0 6.2-1.833 6.2-5.5v0c0-1.433-0.467-2.493-1.4-3.18-0.933-0.68-3.033-1.43-6.3-2.25-3.267-0.813-5.7-1.937-7.3-3.37-1.6-1.433-2.4-3.7-2.4-6.8 0-3.1 1.01-5.443 3.03-7.03 2.013-1.58 4.803-2.37 8.37-2.37v0c2.567 0 5.6 0.3 9.1 0.9v0l1.75 0.3-0.45 4.5c-4.667-0.533-7.967-0.8-9.9-0.8zM35.05 0l-6.7-34.25h5.85l4.9 29.45h1.05l6.5-29.35h6.5l6.5 29.35h1.1l4.9-29.45h5.85l-6.75 34.25h-8.95l-5.9-27.45-5.85 27.45zM82.2 0h-5.55v-34.25h5.55zM95.65 0h-5.55v-34.25h21.25v4.85h-15.7v11.55h13.05v4.85h-13.05zM123-29.3h-9.75v-4.95h25v4.95h-9.65v29.3h-5.6zM146.8 0l-6.7-34.25h5.85l4.9 29.45h1.05l6.5-29.35h6.5l6.5 29.35h1.1l4.9-29.45h5.85l-6.75 34.25h-8.95l-5.9-27.45-5.85 27.45zM210 0h-21.6v-34.25h21.6v4.85h-16.05v9.7h13.05v4.8h-13.05v10h16.05zM216.05 0v-34.25h13c3.5 0 6.117 0.707 7.85 2.12 1.733 1.42 2.6 3.68 2.6 6.78v0c0 2.033-0.323 3.633-0.97 4.8-0.653 1.167-1.68 2.133-3.08 2.9v0c3.267 1.267 4.9 3.917 4.9 7.95v0c0 6.467-3.633 9.7-10.9 9.7v0zM229.05-14.95v0h-7.45v10.15h7.55c1.833 0 3.21-0.383 4.13-1.15 0.913-0.767 1.37-2.083 1.37-3.95 0-1.867-0.533-3.177-1.6-3.93-1.067-0.747-2.4-1.12-4-1.12zM228.75-29.45v0h-7.15v9.8h7.35c3.267 0 4.9-1.683 4.9-5.05v0c0-3.167-1.7-4.75-5.1-4.75zM252.2 0h-5.55v-34.25h9.65l7.65 26.75 7.65-26.75h9.7v34.25h-5.6v-28.1h-0.75l-8.1 26.7h-5.8l-8.1-26.7h-0.75zM291.75 0h-5.55l8.45-34.25h11.05l8.5 34.25h-5.6l-1.85-7.35h-13.15zM301.45-29.6h-2.5l-4.25 17.35h10.95zM332.7-12.2h-8.05v12.2h-5.55v-34.25h13c7.733 0 11.6 3.633 11.6 10.9v0c0 4.867-1.867 8.167-5.6 9.9v0l5.65 13.45h-6.1zM338-23.3v0c0-4.1-1.967-6.15-5.9-6.15v0h-7.45v12.45h7.55c2 0 3.467-0.577 4.4-1.73 0.933-1.147 1.4-2.67 1.4-4.57zM355.55-13.95v13.95h-5.55v-34.25h5.55v15.45l5.1-0.4 7-15.05h6.35l-8.45 17.2 8.8 17.05h-6.45l-7.25-14.3zM400.75 0h-21.6v-34.25h21.6v4.85h-16.05v9.7h13.05v4.8h-13.05v10h16.05zM413.25-29.3h-9.75v-4.95h25v4.95h-9.65v29.3h-5.6zM438.65 0h-5.55v-34.25h5.55zM452.1 0h-5.55v-34.25h9.7l10.4 29.35h0.75v-29.35h5.55v34.25h-9.5l-10.65-29.4h-0.7zM499.05-13.1h-4.25v-4.9h9.75v17.4c-0.9 0.233-2.727 0.483-5.48 0.75-2.747 0.267-4.737 0.4-5.97 0.4v0c-5.2 0-8.783-1.433-10.75-4.3-1.967-2.867-2.95-7.36-2.95-13.48 0-6.113 1.007-10.57 3.02-13.37 2.02-2.8 5.513-4.2 10.48-4.2v0c2.933 0 6.233 0.333 9.9 1v0l1.75 0.35-0.2 4.4c-4.033-0.533-7.65-0.8-10.85-0.8-3.2 0-5.393 0.9-6.58 2.7-1.18 1.8-1.77 5.133-1.77 10 0 4.867 0.557 8.223 1.67 10.07 1.12 1.853 3.38 2.78 6.78 2.78v0c2.433 0 4.25-0.15 5.45-0.45v0z" data-fill-palette-color="primary" fill="#ff5858" opacity="1"></path></g></svg></g></svg></g></svg></g></svg></g><g><svg viewBox="0 0 70.54948968273672 62.66227020400041" height="62.66227020400041" width="70.54948968273672"><g><svg xmlns="http://www.w3.org/2000/svg" data-name="Layer 1" viewBox="0.004168391227722168 5.594712257385254 99.98182678222656 88.80416107177734" x="0" y="0" height="62.66227020400041" width="70.54948968273672" class="icon-icon-0" data-fill-palette-color="accent" id="icon-0"><g data-name="Go to Web" fill="#ed2647" data-fill-palette-color="accent"><path d="M0.54 44.31c-2.19 11.82 2 30.79 18.77 42.33 16 11 36.26 9.54 49.35 0.41-2.39 0.5-4.72 1.13-7.09 1.45-14.37 2-27.78-0.46-39.65-9.21A34.28 34.28 0 0 1 10.36 64.48c-0.14-0.34-0.27-0.68-0.4-1-0.05-0.15-0.08-0.3-0.2-0.79C19 73.38 30.57 79 44.07 80.72s26.24-0.4 37.73-8.58l5.37 5.42c0.34 0.35 0.68 0.7 1 1 1.41 1.34 3 0.87 3.43-1 0.77-3.41 1.5-6.82 2.24-10.23q3-13.62 6-27.24c0.53-2.42-0.38-3.33-2.78-2.8L59.85 45.5a2.17 2.17 0 0 0-2 1.4 2.21 2.21 0 0 0 0.84 2.26c2.12 2.08 4.2 4.18 6.36 6.34a31.58 31.58 0 0 1-7.6 4.88 49.11 49.11 0 0 1-25 4.19A42.93 42.93 0 0 1 13.2 58.52 31.78 31.78 0 0 1 1 45.1C0.84 44.86 0.71 44.63 0.54 44.31Z" fill="#ed2647" data-fill-palette-color="accent"></path><path d="M62.31 32.65A1.07 1.07 0 0 0 61 31.72c-4.51 0-9 0-13.54 0-0.34 0-0.69 0.06-1 0.09V47.94h6.43L54.7 52H46.37v7.72l-4 0.57V52.09H24l0.39 5.84c-1.3-0.52-2.47-0.94-3.6-1.47a1.33 1.33 0 0 1-0.56-0.92C20.1 54.39 20 53.23 19.93 52c-1.72 0-3.35-0.1-5 0a4.84 4.84 0 0 1-4-1.41C10.14 49.79 9.21 49 8.3 48.2l0.19-0.3H19.66l2.5-16.17c-3 0-6.28 0-9.52 0a1.28 1.28 0 0 0-0.81 0.73 63.77 63.77 0 0 0-2.76 6.74c-0.77 2.54-1.16 5.19-1.74 7.88a18 18 0 0 1-4.64-8.77 7.87 7.87 0 0 1 0.45-4.66C10.32 17.13 22.85 7.49 40.85 5.8 54.58 4.52 66.43 9.26 76.17 19.06a43.23 43.23 0 0 1 9.95 15.89c-2.34 0.51-4.59 1-6.85 1.46a1.05 1.05 0 0 1-0.72-0.56c-0.51-1-1-2-1.42-3.1a1.5 1.5 0 0 0-1.66-1c-2.11 0.07-4.23 0-6.34 0H66.35L67.92 39l-3.84 0.85C63.47 37.36 62.86 35 62.31 32.65Zm-21 15.28c0.28 0 0.56 0 0.94-0.07v-16a6.63 6.63 0 0 0-0.81-0.1H27.81a1 1 0 0 0-1.29 0.74 56.78 56.78 0 0 0-2.43 15 2.61 2.61 0 0 0 0.11 0.49H41.35Zm0.94-20.32V13.78c-5.48 0.32-11.64 7.6-13.81 13.84H42.29Zm4.18-0.05H60.17c-0.58-5.27-9-13.78-13.71-13.79V27.57Zm11.12-12.1a4.72 4.72 0 0 0 0.35 0.61 34.8 34.8 0 0 1 6.48 10.51A1.44 1.44 0 0 0 66 27.68c2.51-0.07 5 0 7.85 0A37.38 37.38 0 0 0 57.58 15.47ZM14.93 27.66c3 0 5.75 0 8.48 0A0.85 0.85 0 0 0 24 27.23a41.52 41.52 0 0 1 6.9-11.52A35.68 35.68 0 0 0 14.93 27.66Z" fill="#ed2647" data-fill-palette-color="accent"></path></g></svg></g></svg></g></svg></g></svg><rect width="395.52" height="52.43686341268086" fill="none" stroke="none" visibility="hidden"></rect></g></svg></g></svg>